<svg id="Layer_1" data-name="Layer 1" xmlns="http://www.w3.org/2000/svg" viewBox="0 0 302.92 260.22"><defs><style>.cls-1{fill:#fff;}</style></defs><title>how_icon</title><path class="cls-1" d="M599.39,149.9H359.2a31.36,31.36,0,0,0-31.36,31.36V330.58a31.36,31.36,0,0,0,31.36,31.36h70a6.34,6.34,0,0,1,6.34,6.32l0,13.18a6.34,6.34,0,0,1-1.16,3.67l-10.58,15a6.34,6.34,0,0,0,5.18,10H530a6.34,6.34,0,0,0,5.25-9.89L525,385.05a6.34,6.34,0,0,1-1.09-3.53l0-13.22a6.34,6.34,0,0,1,6.34-6.36h69.15a31.36,31.36,0,0,0,31.36-31.36V181.26A31.36,31.36,0,0,0,599.39,149.9Zm-122,214.47a5.5,5.5,0,1,1,5.5-5.5A5.5,5.5,0,0,1,477.44,364.37ZM611,321.83a25,25,0,0,1-25,25H371.64a25,25,0,0,1-25-25V192.7a25,25,0,0,1,25-25H586a25,25,0,0,1,25,25Z" transform="translate(-327.84 -149.9)"/><path class="cls-1" d="M514.09,200.39l-13.6,2.51a.6.6,0,0,0-.38.24l-9.49,13.26a.6.6,0,0,0,.6.94l13.6-2.51a.6.6,0,0,0,.38-.24l9.49-13.26A.6.6,0,0,0,514.09,200.39Z" transform="translate(-327.84 -149.9)"/><path class="cls-1" d="M462,222.73l13.85-2.56a.6.6,0,0,0,.38-.24l9.49-13.26a.6.6,0,0,0-.6-.94l-13.85,2.56a.6.6,0,0,0-.38.24l-9.49,13.26A.6.6,0,0,0,462,222.73Z" transform="translate(-327.84 -149.9)"/><path class="cls-1" d="M455.86,211.13l-32.58,6a.6.6,0,0,0-.48.7L424.85,229a.6.6,0,0,0,.7.48l21-3.88a.6.6,0,0,0,.38-.24l9.49-13.26A.6.6,0,0,0,455.86,211.13Z" transform="translate(-327.84 -149.9)"/><path class="cls-1" d="M520.21,212l13.14-2.42a.6.6,0,0,0,.48-.7l-2.05-11.13a.6.6,0,0,0-.7-.48l-1.59.29a.6.6,0,0,0-.38.24L519.61,211A.6.6,0,0,0,520.21,212Z" transform="translate(-327.84 -149.9)"/><path class="cls-1" d="M517.87,241.8H504.1a.6.6,0,0,1-.4-.16L492,231a.6.6,0,0,1,.4-1h13.77a.6.6,0,0,1,.4.16l11.67,10.62A.6.6,0,0,1,517.87,241.8Z" transform="translate(-327.84 -149.9)"/><path class="cls-1" d="M462.7,230h14a.6.6,0,0,1,.4.16l11.67,10.62a.6.6,0,0,1-.4,1h-14a.6.6,0,0,1-.4-.16L462.29,231A.6.6,0,0,1,462.7,230Z" transform="translate(-327.84 -149.9)"/><path class="cls-1" d="M458.66,241.8H425.59a.6.6,0,0,1-.6-.6V230.58a.6.6,0,0,1,.6-.6H447a.6.6,0,0,1,.4.16l11.67,10.62A.6.6,0,0,1,458.66,241.8Z" transform="translate(-327.84 -149.9)"/><path class="cls-1" d="M521.91,230h13.3a.6.6,0,0,1,.6.6V241.2a.6.6,0,0,1-.6.6h-1.63a.6.6,0,0,1-.4-.16L521.5,231A.6.6,0,0,1,521.91,230Z" transform="translate(-327.84 -149.9)"/><path class="cls-1" d="M534.1,243.61H426.7a1.7,1.7,0,0,0-1.7,1.7v56.22a1.7,1.7,0,0,0,1.7,1.7H534.1a1.7,1.7,0,0,0,1.7-1.7V245.32A1.7,1.7,0,0,0,534.1,243.61ZM469.78,286.5l-6.32-.24a.54.54,0,0,1-.5-.7l1.88-6a.54.54,0,0,1,1-.15l4.44,6.28A.54.54,0,0,1,469.78,286.5Zm26.33-17.82-23.27,16.47a.54.54,0,0,1-.75-.13L467,277.85a.54.54,0,0,1,.13-.75l23.27-16.47a.54.54,0,0,1,.75.13l5.08,7.18A.54.54,0,0,1,496.11,268.69ZM500,265.9l-2.17,1.54a.54.54,0,0,1-.75-.13L492,260.13a.54.54,0,0,1,.13-.75l2.17-1.54a.54.54,0,0,1,.75.13l5.08,7.18A.54.54,0,0,1,500,265.9Z" transform="translate(-327.84 -149.9)"/></svg>