<svg id="Layer_1" data-name="Layer 1" xmlns="http://www.w3.org/2000/svg" viewBox="0 0 301.35 241.08"><defs><style>.cls-1{fill:#fff;}</style></defs><title>what_icon</title><path class="cls-1" d="M619.79,164.67V165a5.19,5.19,0,0,1-5.19,5.19H594.18A5.19,5.19,0,0,1,589,165v-.33a5.19,5.19,0,0,0-5.19-5.19H375.2a5.19,5.19,0,0,0-5.19,5.19V165a5.19,5.19,0,0,1-5.19,5.19H344.4a5.19,5.19,0,0,1-5.19-5.19v-.33a5.19,5.19,0,0,0-5.19-5.19h0a5.19,5.19,0,0,0-5.19,5.19v230.7a5.19,5.19,0,0,0,5.19,5.19h0a5.19,5.19,0,0,0,5.19-5.19v-9.71a5.19,5.19,0,0,1,5.19-5.19h20.42a5.19,5.19,0,0,1,5.19,5.19v9.71a5.19,5.19,0,0,0,5.19,5.19H583.8a5.19,5.19,0,0,0,5.19-5.19v-9.71a5.19,5.19,0,0,1,5.19-5.19H614.6a5.19,5.19,0,0,1,5.19,5.19v9.71a5.19,5.19,0,0,0,5.19,5.19h0a5.19,5.19,0,0,0,5.19-5.19V164.67a5.19,5.19,0,0,0-5.19-5.19h0A5.19,5.19,0,0,0,619.79,164.67Zm-255,206.42H344.4a5.19,5.19,0,0,1-5.19-5.19V345.48a5.19,5.19,0,0,1,5.19-5.19h20.42a5.19,5.19,0,0,1,5.19,5.19v20.42A5.19,5.19,0,0,1,364.82,371.1Zm0-40.18H344.4a5.19,5.19,0,0,1-5.19-5.19V305.3a5.19,5.19,0,0,1,5.19-5.19h20.42A5.19,5.19,0,0,1,370,305.3v20.42A5.19,5.19,0,0,1,364.82,330.92Zm0-40.18H344.4a5.19,5.19,0,0,1-5.19-5.19V265.12a5.19,5.19,0,0,1,5.19-5.19h20.42a5.19,5.19,0,0,1,5.19,5.19v20.42A5.19,5.19,0,0,1,364.82,290.74Zm0-40.18H344.4a5.19,5.19,0,0,1-5.19-5.19V224.94a5.19,5.19,0,0,1,5.19-5.19h20.42a5.19,5.19,0,0,1,5.19,5.19v20.42A5.19,5.19,0,0,1,364.82,250.56Zm0-40.18H344.4a5.19,5.19,0,0,1-5.19-5.19V184.76a5.19,5.19,0,0,1,5.19-5.19h20.42a5.19,5.19,0,0,1,5.19,5.19v20.42A5.19,5.19,0,0,1,364.82,210.38Zm208.8,165.41H384.09a5.19,5.19,0,0,1-5.19-5.2l.46-185.83a5.19,5.19,0,0,1,5.19-5.18H574.08a5.19,5.19,0,0,1,5.19,5.2l-.46,185.83A5.19,5.19,0,0,1,573.62,375.78Zm41-4.69H594.18a5.19,5.19,0,0,1-5.19-5.19V345.48a5.19,5.19,0,0,1,5.19-5.19H614.6a5.19,5.19,0,0,1,5.19,5.19v20.42A5.19,5.19,0,0,1,614.6,371.1Zm0-40.18H594.18a5.19,5.19,0,0,1-5.19-5.19V305.3a5.19,5.19,0,0,1,5.19-5.19H614.6a5.19,5.19,0,0,1,5.19,5.19v20.42A5.19,5.19,0,0,1,614.6,330.92Zm0-40.18H594.18a5.19,5.19,0,0,1-5.19-5.19V265.12a5.19,5.19,0,0,1,5.19-5.19H614.6a5.19,5.19,0,0,1,5.19,5.19v20.42A5.19,5.19,0,0,1,614.6,290.74Zm0-40.18H594.18a5.19,5.19,0,0,1-5.19-5.19V224.94a5.19,5.19,0,0,1,5.19-5.19H614.6a5.19,5.19,0,0,1,5.19,5.19v20.42A5.19,5.19,0,0,1,614.6,250.56Zm0-40.18H594.18a5.19,5.19,0,0,1-5.19-5.19V184.76a5.19,5.19,0,0,1,5.19-5.19H614.6a5.19,5.19,0,0,1,5.19,5.19v20.42A5.19,5.19,0,0,1,614.6,210.38Z" transform="translate(-328.83 -159.48)"/><path class="cls-1" d="M479.5,223a57,57,0,1,0,57,57A57,57,0,0,0,479.5,223Zm32.44,60.2L465,310.29a3.7,3.7,0,0,1-5.55-3.2V253a3.7,3.7,0,0,1,5.55-3.2l46.91,27.06A3.7,3.7,0,0,1,511.94,283.23Z" transform="translate(-328.83 -159.48)"/></svg>