<svg id="Layer_2" data-name="Layer 2" xmlns="http://www.w3.org/2000/svg" viewBox="0 0 181.38 360.45"><defs><style>.cls-1{fill:#fff;}</style></defs><title>who_icon</title><circle class="cls-1" cx="85.89" cy="55.18" r="32.62"/><path class="cls-1" d="M600.05,86.53c-1.21-2.83-4.34-8-11-8s-10.39,5.08-12.05,8a7.88,7.88,0,0,0-1,3.88v49.19a8.07,8.07,0,0,1-3,6.3l-28.47,22.73a8.06,8.06,0,0,1-5,1.76H477.09l-.63,0c-2-.16-14.55-.69-22.29,9.54-7.93,10.49-27.41,38.06-29.68,41.28-.13.19-8.43,10.87-3.75,28.85,4.8,18.43,11,40.38,11.86,43.41.06.22.11.43.15.65.36,1.86,2.88,11.7,15.44,9.49,12.78-2.25,9.16-14.44,8.52-16.33-.06-.19-.12-.38-.17-.57l-11.33-42.9s-1.63-6.25.54-9.79,11.42-15.49,11.42-15.49,4.08-6,4.08.82S461,417,461,417s-1.09,22.29,16.58,22,18-12.5,18.21-24.19c.25-12.66.51-105.31.54-117.92a7.66,7.66,0,0,1,1.22-4.23,4.1,4.1,0,0,1,3.41-2.08c3.53,0,5.71,1.9,5.71,4.62s-.76,112.63-.81,120c0,.24,0,.46,0,.69-.27,2.73-1.64,23.08,16.61,23.08,19.57,0,17.67-13.32,17.67-24.74,0-10.48,0-177.47,0-205.21a8.05,8.05,0,0,1,3-6.25l46.78-38a8.28,8.28,0,0,1,.87-.61c1.87-1.16,9.95-9.29,9.95-25.87V89.69A8,8,0,0,0,600.05,86.53Zm-99.56,116S482,203.22,482,222c0,12,7.29,16.1,12.73,17.51l.08-14.93h5.65v25.73s-27.91.69-27.91-27.57c0-31.69,27.91-30.1,27.91-30.1Zm2.24,47.8v-9.86s18.45-.7,18.45-19.5c0-12-7.29-16.1-12.73-17.51l-.08,14.93h-5.65V192.65s27.91-.69,27.91,27.57C530.64,251.91,502.73,250.32,502.73,250.32Z" transform="translate(-419.31 -78.55)"/></svg>